	<svg version="1.1" id="Layer_1" xmlns="http://www.w3.org/2000/svg" xmlns:xlink="http://www.w3.org/1999/xlink" x="0px" y="0px"
		width="100%" viewBox="0 0 276 101" enable-background="new 0 0 276 101" xml:space="preserve">
	<path fill="#FFFFFF" opacity="1.000000" stroke="none" 
		d="
	M198.000000,1.000000 
		C224.298172,1.000000 250.596359,1.000000 276.947266,1.000000 
		C276.947266,34.586491 276.947266,68.173080 276.947266,102.000000 
		C227.979370,102.000000 178.958344,102.000000 129.423004,101.667854 
		C129.248642,100.553810 129.588608,99.771912 130.197357,98.655792 
		C134.290665,99.672043 138.276901,101.455673 138.320999,94.589157 
		C138.322998,94.277260 140.616531,93.980080 141.506348,93.964325 
		C141.596359,95.922440 142.022781,97.592278 142.449203,99.262115 
		C143.362427,97.857773 144.295120,96.465508 145.178162,95.042450 
		C145.481506,94.553604 145.580124,93.584366 145.909058,93.518593 
		C149.827133,92.735107 148.387451,90.160271 148.169281,87.758316 
		C144.082092,87.569160 141.699783,88.833534 141.568649,93.330170 
		C140.696335,91.773132 140.291321,90.016129 139.890244,88.276138 
		C134.583618,87.658745 131.523102,89.976219 130.724411,95.136253 
		C130.521484,96.447197 130.237000,97.745522 129.599579,98.937149 
		C129.209167,95.697449 129.209167,92.570236 129.209167,88.500702 
		C126.841782,90.088264 125.546280,90.957024 124.202209,91.858353 
		C123.459641,86.725922 122.974548,86.603813 118.826408,89.821480 
		C117.308411,89.146065 115.843506,87.884048 114.927444,88.202217 
		C112.284355,89.120239 110.831932,96.485863 112.578011,99.764435 
		C113.998962,98.722458 115.378891,97.710564 116.758675,96.698769 
		C119.170082,100.246933 119.170082,100.246933 123.639153,96.802750 
		C124.200813,96.927162 124.428024,96.964943 124.726921,97.379051 
		C125.199066,99.170250 125.599533,100.585129 126.000000,102.000000 
		C120.645073,102.000000 115.290138,102.000000 109.686859,101.644325 
		C109.376358,97.431580 109.314209,93.574509 109.137131,89.362289 
		C110.664612,82.008415 119.333786,76.758644 127.667786,78.239792 
		C139.260971,80.300148 150.783844,83.176094 162.663925,81.647652 
		C173.142487,80.299530 182.419495,76.470505 188.460464,67.028931 
		C188.528687,67.037903 188.667725,67.062630 189.108673,67.113541 
		C191.314789,67.091713 193.079941,67.018974 195.018784,66.936371 
		C195.422501,66.883331 195.628906,66.788658 196.198776,66.458481 
		C196.988403,64.505569 197.390915,62.736649 197.861694,60.590622 
		C197.258362,59.337448 196.586746,58.461380 196.076263,57.339661 
		C196.761246,56.081596 197.285080,55.069183 197.870483,53.616699 
		C197.898636,51.106121 197.865219,49.035614 197.896149,46.510376 
		C197.921707,42.368126 197.882935,38.680611 197.910416,34.578846 
		C197.920731,32.768482 197.864761,31.372362 197.896606,29.555113 
		C197.935699,27.416868 197.886993,25.699755 197.905182,23.519379 
		C197.981369,15.704080 197.990692,8.352040 198.000000,1.000000 
	M204.732819,97.090057 
		C205.401855,96.959045 206.070877,96.828033 206.739914,96.697029 
		C206.496384,96.348824 206.252838,96.000610 206.489212,95.248528 
		C206.290482,94.501671 206.155579,93.137421 205.882523,93.109192 
		C204.237656,92.939125 201.883255,92.293655 202.576645,95.895760 
		C202.418625,96.212555 202.260605,96.529350 201.877136,97.382538 
		C201.905838,97.869720 201.934540,98.356911 201.963242,98.844093 
		C202.650558,98.296349 203.337860,97.748604 204.732819,97.090057 
	M248.903000,98.043869 
		C250.105865,97.885826 251.308716,97.727783 253.881516,97.389748 
		C251.725128,96.351799 250.813431,95.912971 249.900360,95.467010 
		C250.802902,95.035767 251.705429,94.604530 253.216553,93.882507 
		C247.702652,91.715881 247.963943,94.992378 247.529907,98.271233 
		C247.679306,98.760307 247.828705,99.249382 247.978104,99.738457 
		C248.031555,99.190529 248.085022,98.642593 248.903000,98.043869 
	M194.847855,99.047272 
		C196.392609,98.933601 197.937378,98.819923 199.701447,98.690109 
		C198.548309,96.525978 197.675110,94.887177 196.159912,92.043533 
		C195.166016,95.104111 194.542099,97.025352 193.648102,99.096725 
		C193.784439,99.093338 193.920761,99.089951 194.847855,99.047272 
	M239.518982,94.908012 
		C241.243622,96.157486 242.968277,97.406960 244.692917,98.656433 
		C245.120239,98.269096 245.547546,97.881767 245.974869,97.494431 
		C245.541626,96.105988 245.414413,93.805588 244.606232,93.534355 
		C243.260468,93.082726 241.478226,93.931664 239.518982,94.908012 
	M166.770645,97.079185 
		C168.357025,97.653084 169.943405,98.226990 171.529785,98.800888 
		C171.924332,98.461151 172.318878,98.121414 172.713425,97.781685 
		C171.481476,96.170044 170.526230,93.631485 168.953354,93.161949 
		C166.537018,92.440643 165.175446,94.233131 166.770645,97.079185 
	M158.869064,93.167442 
		C157.433899,93.167442 155.998734,93.167442 154.304001,93.167442 
		C154.699280,95.466965 155.011917,97.285713 155.324539,99.104454 
		C155.753479,99.228745 156.182419,99.353027 156.611343,99.477310 
		C157.562180,97.518066 158.513016,95.558823 158.869064,93.167442 
	M178.009338,96.666222 
		C178.254395,97.309921 178.499451,97.953629 178.744522,98.597328 
		C179.139908,98.511086 179.535294,98.424843 179.930679,98.338600 
		C179.715790,96.893120 179.996307,94.897408 179.158844,94.143372 
		C178.143753,93.229385 176.184052,93.364494 174.633087,93.045662 
		C174.575546,93.369095 174.518021,93.692520 174.460480,94.015953 
		C175.633408,94.668266 176.806320,95.320580 178.009338,96.666222 
	M161.353439,94.483665 
		C161.353439,96.128426 161.353439,97.773186 161.353439,99.417946 
		C161.921494,99.318420 162.489548,99.218887 163.057602,99.119362 
		C162.648056,97.393860 162.238510,95.668365 161.353439,94.483665 
	M257.195648,96.038994 
		C258.262451,96.836838 259.329285,97.634682 260.396088,98.432526 
		C260.553406,98.240479 260.710724,98.048424 260.868042,97.856377 
		C260.199463,96.555832 259.530853,95.255295 258.862274,93.954750 
		C258.258698,94.426613 257.655090,94.898468 257.195648,96.038994 
	M230.858948,94.143036 
		C230.319992,94.720207 229.781036,95.297386 229.242081,95.874565 
		C230.624130,96.246193 232.006195,96.617828 233.388245,96.989456 
		C233.451874,96.678284 233.515518,96.367104 233.579147,96.055931 
		C232.868820,95.504112 232.158478,94.952293 230.858948,94.143036 
	M188.727829,95.622604 
		C189.030960,96.293526 189.320526,96.971802 189.670486,97.617340 
		C189.691772,97.656593 190.192230,97.436066 190.469742,97.336411 
		C190.073166,96.799568 189.676590,96.262718 188.727829,95.622604 
	M222.383438,96.701675 
		C222.327545,97.509560 222.271652,98.317444 222.215759,99.125320 
		C222.493454,99.123131 222.771133,99.120941 223.048828,99.118744 
		C223.006226,98.317329 222.963608,97.515907 222.383438,96.701675 
	M186.461349,98.164017 
		C186.566727,97.440063 186.672089,96.716118 186.777466,95.992165 
		C186.553848,95.980812 186.330246,95.969452 186.106644,95.958099 
		C186.106644,96.561195 186.106644,97.164299 186.461349,98.164017 
	M181.422638,93.699776 
		C181.637527,93.989143 181.852432,94.278511 182.067337,94.567879 
		C182.251648,94.391327 182.435974,94.214775 182.620300,94.038223 
		C182.340942,93.810486 182.061600,93.582741 181.422638,93.699776 
	M190.699844,94.578384 
		C190.989105,94.363579 191.278366,94.148781 191.567627,93.933968 
		C191.391159,93.749664 191.214691,93.565369 191.038208,93.381081 
		C190.810516,93.660355 190.582825,93.939629 190.699844,94.578384 
	M232.301834,98.417015 
		C232.010452,98.633484 231.719070,98.849960 231.427689,99.066422 
		C231.605515,99.252045 231.783340,99.437660 231.961166,99.623283 
		C232.190475,99.341904 232.419800,99.060516 232.301834,98.417015 
	M216.843063,95.043915 
		C216.587372,95.196419 216.200989,95.299019 216.117630,95.517319 
		C216.051773,95.689850 216.358246,96.004555 216.499359,96.256126 
		C216.640900,96.004257 216.782425,95.752380 216.843063,95.043915 
	M218.586777,98.598152 
		C218.608459,98.951042 218.630142,99.303940 218.651810,99.656837 
		C218.904526,99.584206 219.157227,99.511566 219.409927,99.438919 
		C219.276535,99.194733 219.143143,98.950554 218.586777,98.598152 
	M174.005005,98.708977 
		C173.768280,98.784035 173.531555,98.859093 173.294830,98.934151 
		C173.561707,99.197777 173.828583,99.461403 174.095459,99.725029 
		C174.168640,99.488075 174.241821,99.251122 174.005005,98.708977 
	z"/>
	<path fill="#FEFEFE" opacity="1.000000" stroke="none" 
		d="
	M107.000000,102.000000 
		C71.718773,102.000000 36.437550,102.000000 1.078161,102.000000 
		C1.078161,68.435242 1.078161,34.870258 1.078161,1.000000 
		C30.686863,1.000000 60.374775,1.000000 90.527687,1.468645 
		C91.049301,12.288319 91.105911,22.639347 91.089767,33.429855 
		C91.061676,36.242798 91.106323,38.616264 91.078331,41.453609 
		C91.062546,47.937351 91.119392,53.957214 91.111359,60.423328 
		C91.031853,62.682430 90.654945,64.591331 91.103035,66.281502 
		C91.564125,68.020676 92.829796,69.546547 93.922943,71.541130 
		C97.392204,72.290527 100.681915,72.664551 104.248436,73.125595 
		C104.909935,73.202744 105.294632,73.192848 105.761780,73.545593 
		C105.185440,78.516739 104.526649,83.125259 103.499359,87.744232 
		C101.492645,88.735008 99.854431,89.715324 98.409286,90.580116 
		C97.888535,89.664993 97.366745,88.748032 96.844948,87.831070 
		C95.935478,88.409996 94.581596,88.784920 94.203804,89.607910 
		C93.250633,91.684334 92.737022,93.962547 91.578186,96.195381 
		C90.879356,94.112694 90.649590,91.994507 90.383148,89.538116 
		C88.290810,90.486488 86.613945,91.246536 84.707954,91.678085 
		C84.217064,90.055992 83.955299,88.762405 83.693527,87.468811 
		C82.841454,87.788742 81.570107,87.859367 81.206985,88.470039 
		C79.213531,91.822533 77.725113,95.349808 79.274109,99.900627 
		C81.783028,98.611664 83.887665,97.530396 85.991714,96.837189 
		C87.472977,101.992729 89.932426,98.411369 92.009338,97.950668 
		C91.990051,97.969139 92.041618,97.983047 92.047340,98.275726 
		C93.096581,98.402992 94.140091,98.237572 95.473976,97.918373 
		C96.145485,97.045219 96.526619,96.325851 96.964935,95.498573 
		C98.136345,97.364197 99.157478,99.298058 99.333672,99.223923 
		C101.266106,98.410767 103.066788,97.284508 104.721153,96.346512 
		C105.476341,98.220024 106.238174,100.110008 107.000000,102.000000 
	M75.447258,88.266754 
		C77.776520,83.811005 77.404686,82.809311 72.958466,83.059982 
		C71.140732,83.162468 68.153008,84.256645 67.891747,85.400742 
		C67.438934,87.383560 68.476151,89.842476 69.300735,91.939606 
		C70.001816,93.722649 71.283829,95.277260 72.308807,96.932945 
		C71.843597,97.193871 71.378387,97.454803 70.913177,97.715729 
		C70.017860,96.465569 69.122543,95.215401 68.129021,93.828102 
		C64.921951,94.830734 64.012321,96.742035 67.088707,98.338776 
		C69.008965,99.335457 72.646889,99.524429 74.036217,98.340981 
		C75.434517,97.149895 75.113167,93.820602 75.323219,91.408882 
		C75.415688,90.347244 74.958481,89.237724 75.447258,88.266754 
	M30.589315,94.516472 
		C29.478048,92.599388 28.366781,90.682304 27.652719,89.450447 
		C28.940315,87.737724 30.044949,86.268364 31.149584,84.799011 
		C29.322834,84.134827 27.414904,82.796730 25.693144,83.004135 
		C24.107452,83.195137 21.918558,84.798492 21.472870,86.237366 
		C21.022411,87.691643 22.205803,89.794548 23.002960,91.455132 
		C23.913935,93.352806 25.188375,95.075996 26.304878,96.875008 
		C25.816183,97.129410 25.327486,97.383820 24.838791,97.638229 
		C24.019218,96.352997 23.199646,95.067772 22.410305,93.829948 
		C18.900349,94.968758 18.940153,96.543152 21.220060,98.466087 
		C24.633038,101.344681 27.986361,100.147873 30.589315,94.516472 
	M44.932709,90.560936 
		C42.935703,91.072723 40.938694,91.584518 39.247154,92.018021 
		C38.801865,90.591286 38.309456,89.013588 37.817051,87.435883 
		C37.074551,87.683739 35.995422,87.701820 35.644005,88.216637 
		C33.306137,91.641479 32.172852,95.325569 33.432667,100.160965 
		C35.940865,98.696831 37.736485,97.648659 38.727764,97.070007 
		C40.665775,98.064072 42.101917,98.800713 43.538055,99.537354 
		C43.968613,98.126671 44.529198,96.739601 44.790951,95.298264 
		C45.024422,94.012634 44.927555,92.667007 44.932709,90.560936 
	M57.381912,93.580162 
		C57.381912,92.082207 57.381912,90.584251 57.381912,88.165703 
		C54.980152,89.450333 53.634674,90.169983 52.352127,90.855988 
		C51.759243,89.736679 51.163670,88.612297 50.164951,86.726807 
		C46.893230,91.273705 45.273361,95.124771 47.792389,100.499832 
		C49.228462,98.608727 50.664539,96.717613 51.653011,95.415932 
		C53.459290,97.008141 54.847439,98.231781 56.235588,99.455414 
		C56.600052,97.779396 56.964516,96.103386 57.381912,93.580162 
	z"/>
	<path fill="#045C8F" opacity="1.000000" stroke="none" 
		d="
	M91.162514,32.990379 
		C91.105911,22.639347 91.049301,12.288319 90.996346,1.468645 
		C95.356903,1.000000 99.713799,1.000000 104.536697,1.398741 
		C106.281693,3.185948 107.555672,5.761429 108.840523,5.766860 
		C116.212357,5.798019 123.601364,5.374373 130.944885,4.683451 
		C132.068832,4.577704 132.986771,2.282547 134.000000,0.999999 
		C137.692902,1.000000 141.385818,1.000000 145.573578,1.366866 
		C148.242844,7.576754 153.557693,6.298438 158.274658,7.285552 
		C160.153320,7.750176 161.758560,7.925235 163.324783,8.466496 
		C159.994293,12.664595 156.702820,16.496489 153.109207,20.482002 
		C151.094009,22.538475 149.251312,24.349022 147.776001,26.421160 
		C147.476730,26.841509 148.563843,28.248903 149.020599,29.528614 
		C149.045044,30.292501 149.060715,30.729036 148.568665,31.212637 
		C145.660339,31.187027 143.259720,31.114355 141.163544,30.900122 
		C141.945724,30.290255 142.423508,29.821947 142.921402,28.905991 
		C142.629791,24.243505 142.549271,19.992361 141.895828,15.831179 
		C141.623367,14.095976 140.131454,12.552261 139.038254,10.616192 
		C137.671310,8.646962 136.460129,6.983021 134.779480,4.674104 
		C134.779480,8.554922 134.779480,11.277137 134.536011,13.760324 
		C131.818542,12.090900 129.344559,10.660505 127.180130,9.409096 
		C125.379921,10.366787 123.933228,11.410666 122.317909,11.938756 
		C118.935318,13.044625 115.514954,14.226990 112.016556,14.739933 
		C107.217697,15.443553 106.890083,17.686197 108.725388,21.453770 
		C109.792572,23.530197 111.133377,25.457409 112.085045,27.548874 
		C107.706207,29.142447 103.802063,31.343855 99.684807,27.606539 
		C99.211060,27.176512 96.674492,28.785645 95.253418,29.697294 
		C93.788490,30.637085 92.518051,31.880056 91.162514,32.990379 
	z"/>
	<path fill="#015188" opacity="1.000000" stroke="none" 
		d="
	M197.545898,1.000000 
		C197.990692,8.352040 197.981369,15.704080 197.499954,23.524464 
		C193.345490,23.940584 188.855347,25.219364 186.141022,23.572067 
		C179.535370,19.563137 172.699646,21.671743 166.146500,20.664455 
		C167.464996,16.520212 170.102539,12.708268 166.019226,8.763945 
		C165.908264,8.365423 165.906677,8.196114 166.269852,7.874707 
		C172.331070,6.814742 178.005341,5.698731 183.733490,5.087823 
		C186.549088,4.787537 188.215805,4.087801 188.000000,1.000000 
		C191.030594,1.000000 194.061188,1.000000 197.545898,1.000000 
	z"/>
	<path fill="#232692" opacity="1.000000" stroke="none" 
		d="
	M129.928558,98.990013 
		C129.588608,99.771912 129.248642,100.553810 128.954346,101.667854 
		C128.250000,102.000000 127.500000,102.000000 126.375000,102.000000 
		C125.599533,100.585129 125.199066,99.170250 124.774879,97.058777 
		C124.269005,96.480156 123.786850,96.598137 123.304695,96.716110 
		C119.170082,100.246933 119.170082,100.246933 116.758675,96.698769 
		C115.378891,97.710564 113.998962,98.722458 112.578011,99.764435 
		C110.831932,96.485863 112.284355,89.120239 114.927444,88.202217 
		C115.843506,87.884048 117.308411,89.146065 118.826408,89.821480 
		C122.974548,86.603813 123.459641,86.725922 124.202209,91.858353 
		C125.546280,90.957024 126.841782,90.088264 129.209167,88.500702 
		C129.209167,92.570236 129.209167,95.697449 129.581238,98.925949 
		C129.953308,99.027237 129.928558,98.990013 129.928558,98.990013 
	z"/>
	<path fill="#232492" opacity="1.000000" stroke="none" 
		d="
	M92.047272,96.159889 
		C92.737022,93.962547 93.250633,91.684334 94.203804,89.607910 
		C94.581596,88.784920 95.935478,88.409996 96.844948,87.831070 
		C97.366745,88.748032 97.888535,89.664993 98.409286,90.580116 
		C99.854431,89.715324 101.492645,88.735008 103.470169,87.745529 
		C103.809486,87.736366 103.761627,87.838821 103.883057,88.217804 
		C104.186874,89.701904 104.369270,90.807014 104.573914,92.046921 
		C106.480598,91.097481 107.866325,90.407455 109.252052,89.717438 
		C109.314209,93.574509 109.376358,97.431580 109.219254,101.644325 
		C108.555557,102.000000 108.111107,102.000000 107.333328,102.000000 
		C106.238174,100.110008 105.476341,98.220024 104.721153,96.346512 
		C103.066788,97.284508 101.266106,98.410767 99.333672,99.223923 
		C99.157478,99.298058 98.136345,97.364197 96.964935,95.498573 
		C96.526619,96.325851 96.145485,97.045219 95.081490,97.899643 
		C93.612961,98.017479 92.827293,98.000267 92.041618,97.983047 
		C92.041618,97.983047 91.990051,97.969139 92.011185,97.655319 
		C92.037300,96.947624 92.042282,96.553757 92.047272,96.159889 
	z"/>
	<path fill="#01548B" opacity="1.000000" stroke="none" 
		d="
	M133.531342,0.999999 
		C132.986771,2.282547 132.068832,4.577704 130.944885,4.683451 
		C123.601364,5.374373 116.212357,5.798019 108.840523,5.766860 
		C107.555672,5.761429 106.281693,3.185948 105.001343,1.398741 
		C114.354225,1.000000 123.708458,1.000000 133.531342,0.999999 
	z"/>
	<path fill="#01578E" opacity="1.000000" stroke="none" 
		d="
	M187.531372,1.000000 
		C188.215805,4.087801 186.549088,4.787537 183.733490,5.087823 
		C178.005341,5.698731 172.331070,6.814742 166.045624,7.704115 
		C165.219955,7.179566 164.983292,6.673513 165.019791,5.987543 
		C164.861969,4.205085 164.430984,2.602544 164.000000,1.000002 
		C171.687576,1.000000 179.375168,1.000000 187.531372,1.000000 
	z"/>
	<path fill="#026DA0" opacity="1.000000" stroke="none" 
		d="
	M158.001221,6.995986 
		C153.557693,6.298438 148.242844,7.576754 146.034210,1.366866 
		C150.024551,1.000000 154.049088,1.000000 158.590134,1.342131 
		C161.594925,4.049350 160.887604,5.749407 158.001221,6.995986 
	z"/>
	<path fill="#0A6491" opacity="1.000000" stroke="none" 
		d="
	M158.274658,7.285552 
		C160.887604,5.749407 161.594925,4.049350 159.053314,1.342131 
		C160.388885,1.000000 161.777786,1.000000 163.583328,1.000002 
		C164.430984,2.602544 164.861969,4.205085 164.832825,6.141015 
		C164.036392,7.016367 163.700104,7.558330 163.363800,8.100292 
		C161.758560,7.925235 160.153320,7.750176 158.274658,7.285552 
	z"/>
	<path fill="#797FC0" opacity="1.000000" stroke="none" 
		d="
	M109.137131,89.362289 
		C107.866325,90.407455 106.480598,91.097481 104.573914,92.046921 
		C104.369270,90.807014 104.186874,89.701904 104.229500,88.157890 
		C106.348892,84.852859 108.243271,81.986732 110.450729,78.956390 
		C113.024483,77.852226 115.268936,76.167709 117.548973,76.118073 
		C123.361977,75.991524 129.190872,76.594826 135.416122,76.968254 
		C143.995407,77.695694 152.195114,79.072617 160.341385,78.807480 
		C167.208511,78.583984 173.917114,76.219551 179.558777,71.150726 
		C182.540268,69.296921 185.188568,67.531158 187.893616,65.862122 
		C187.950378,65.958855 188.070160,66.148483 188.098068,66.385803 
		C188.125977,66.623116 188.392242,67.019958 188.392242,67.019958 
		C182.419495,76.470505 173.142487,80.299530 162.663925,81.647652 
		C150.783844,83.176094 139.260971,80.300148 127.667786,78.239792 
		C119.333786,76.758644 110.664612,82.008415 109.137131,89.362289 
	z"/>
	<path fill="#0B6395" opacity="1.000000" stroke="none" 
		d="
	M165.998627,21.018238 
		C172.699646,21.671743 179.535370,19.563137 186.141022,23.572067 
		C188.855347,25.219364 193.345490,23.940584 197.433075,23.987722 
		C197.886993,25.699755 197.935699,27.416868 197.524353,29.551228 
		C194.401016,30.316977 191.737747,30.665482 188.815491,30.870544 
		C188.374420,30.187168 188.192307,29.647234 188.066193,28.719982 
		C187.432785,27.982992 186.480560,27.147207 186.093414,27.356524 
		C180.237686,30.522642 173.958221,31.123648 167.442078,31.094044 
		C165.510391,31.085268 163.572357,32.470455 161.908112,33.112408 
		C164.678329,36.897472 166.868851,39.890457 168.917007,43.092129 
		C168.129440,43.217106 167.484253,43.133396 166.591644,42.833633 
		C163.198380,39.436169 160.052505,36.254761 157.263977,33.006889 
		C158.739288,31.847466 160.088486,30.906574 160.927689,29.630337 
		C162.755798,26.850252 164.324127,23.899340 165.998627,21.018238 
	z"/>
	<path fill="#3590B8" opacity="1.000000" stroke="none" 
		d="
	M197.844147,34.993092 
		C197.882935,38.680611 197.921707,42.368126 197.519165,46.466614 
		C194.485291,45.707588 191.892715,44.537598 189.143234,43.296799 
		C192.696625,49.698032 185.582489,47.163300 183.244797,49.211609 
		C182.228394,48.531826 181.494141,47.921429 181.078674,47.125145 
		C182.869431,46.034790 184.341385,45.130325 185.813339,44.225857 
		C185.285690,44.153622 184.758041,44.081383 184.230377,44.009148 
		C183.769196,41.962799 183.307999,39.916454 183.015549,37.600578 
		C184.090454,36.863796 184.996643,36.396553 186.219238,36.064953 
		C188.733749,36.241375 191.813980,35.377228 192.961411,36.495781 
		C196.163239,39.617031 196.641479,36.743549 197.844147,34.993092 
	z"/>
	<path fill="#549DC1" opacity="1.000000" stroke="none" 
		d="
	M197.793411,60.967728 
		C197.390915,62.736649 196.988403,64.505569 196.020752,66.388138 
		C195.183746,66.555855 194.980255,66.704002 194.845108,66.946228 
		C193.079941,67.018974 191.314789,67.091713 189.134735,66.901756 
		C188.606247,66.339256 188.389679,66.175735 188.070160,66.148483 
		C188.070160,66.148483 187.950378,65.958855 187.922302,65.493446 
		C186.989380,64.410789 186.074509,63.250584 185.181351,63.267078 
		C180.457581,63.354317 175.739273,63.737659 171.153595,63.696236 
		C172.080368,61.798569 172.196228,59.312630 175.161804,60.745071 
		C175.476212,60.896935 176.421936,59.741802 177.463120,59.151878 
		C178.892197,59.107601 179.932922,59.104446 181.109131,59.307152 
		C181.490616,59.764091 181.789368,59.885025 182.544128,59.877914 
		C184.288361,59.965359 185.629364,60.050713 187.065857,60.284607 
		C187.450348,60.367260 187.739334,60.301373 188.340317,60.227989 
		C189.065811,60.261604 189.479324,60.302719 189.973633,60.595318 
		C190.739258,60.683620 191.424088,60.520435 192.467072,60.298508 
		C193.549545,60.195908 194.273819,60.152054 195.195068,60.345009 
		C196.192474,60.710457 196.992950,60.839092 197.793411,60.967728 
	z"/>
	<path fill="#1E2090" opacity="1.000000" stroke="none" 
		d="
	M141.842758,93.676041 
		C140.616531,93.980080 138.322998,94.277260 138.320999,94.589157 
		C138.276901,101.455673 134.290665,99.672043 130.197357,98.655792 
		C129.928558,98.990013 129.953308,99.027237 129.971649,99.038437 
		C130.237000,97.745522 130.521484,96.447197 130.724411,95.136253 
		C131.523102,89.976219 134.583618,87.658745 139.890244,88.276138 
		C140.291321,90.016129 140.696335,91.773132 141.571594,93.432220 
		C142.041840,93.334312 141.842758,93.676041 141.842758,93.676041 
	z"/>
	<path fill="#5899BC" opacity="1.000000" stroke="none" 
		d="
	M183.526947,49.280998 
		C185.582489,47.163300 192.696625,49.698032 189.143234,43.296799 
		C191.892715,44.537598 194.485291,45.707588 197.454834,46.921341 
		C197.865219,49.035614 197.898636,51.106121 197.451508,53.614326 
		C191.762085,54.511734 187.245056,53.021973 183.526947,49.280998 
	z"/>
	<path fill="#EDAC13" opacity="1.000000" stroke="none" 
		d="
	M183.244797,49.211609 
		C187.245056,53.021973 191.762085,54.511734 197.389923,54.054398 
		C197.285080,55.069183 196.761246,56.081596 195.993835,57.397392 
		C195.750290,57.700775 195.705231,57.896954 195.333420,57.880074 
		C193.962845,57.871532 192.964066,57.879875 191.901031,57.530434 
		C188.176529,55.236298 184.183853,53.731030 180.952179,51.238907 
		C177.893616,48.880287 174.978363,47.389893 171.080994,47.642136 
		C171.686127,46.786289 172.349380,46.307148 173.418076,45.883472 
		C176.135651,46.396301 178.447769,46.853668 180.759888,47.311035 
		C181.494141,47.921429 182.228394,48.531826 183.244797,49.211609 
	z"/>
	<path fill="#0976A7" opacity="1.000000" stroke="none" 
		d="
	M197.910416,34.578846 
		C196.641479,36.743549 196.163239,39.617031 192.961411,36.495781 
		C191.813980,35.377228 188.733749,36.241375 186.254395,35.834370 
		C185.973145,35.468143 186.016022,35.002914 186.232559,34.894806 
		C186.720581,34.588623 186.902878,34.328129 187.212601,33.888664 
		C187.698807,33.569405 187.895660,33.311226 188.238220,32.895630 
		C188.729446,32.597759 188.909302,32.337578 189.013367,31.763165 
		C189.045166,31.346785 189.059814,31.180384 189.074478,31.013985 
		C191.737747,30.665482 194.401016,30.316977 197.436539,29.972355 
		C197.864761,31.372362 197.920731,32.768482 197.910416,34.578846 
	z"/>
	<path fill="#13168B" opacity="1.000000" stroke="none" 
		d="
	M141.506348,93.964325 
		C141.842758,93.676041 142.041840,93.334312 142.038910,93.232269 
		C141.699783,88.833534 144.082092,87.569160 148.169281,87.758316 
		C148.387451,90.160271 149.827133,92.735107 145.909058,93.518593 
		C145.580124,93.584366 145.481506,94.553604 145.178162,95.042450 
		C144.295120,96.465508 143.362427,97.857773 142.449203,99.262115 
		C142.022781,97.592278 141.596359,95.922440 141.506348,93.964325 
	z"/>
	<path fill="#D4D9EF" opacity="1.000000" stroke="none" 
		d="
	M239.699371,94.570480 
		C241.478226,93.931664 243.260468,93.082726 244.606232,93.534355 
		C245.414413,93.805588 245.541626,96.105988 245.974869,97.494431 
		C245.547546,97.881767 245.120239,98.269096 244.692917,98.656433 
		C242.968277,97.406960 241.243622,96.157486 239.699371,94.570480 
	z"/>
	<path fill="#D3D7ED" opacity="1.000000" stroke="none" 
		d="
	M166.416840,97.014343 
		C165.175446,94.233131 166.537018,92.440643 168.953354,93.161949 
		C170.526230,93.631485 171.481476,96.170044 172.713425,97.781685 
		C172.318878,98.121414 171.924332,98.461151 171.529785,98.800888 
		C169.943405,98.226990 168.357025,97.653084 166.416840,97.014343 
	z"/>
	<path fill="#FCFCFE" opacity="1.000000" stroke="none" 
		d="
	M159.166458,93.383514 
		C158.513016,95.558823 157.562180,97.518066 156.611343,99.477310 
		C156.182419,99.353027 155.753479,99.228745 155.324539,99.104454 
		C155.011917,97.285713 154.699280,95.466965 154.304001,93.167442 
		C155.998734,93.167442 157.433899,93.167442 159.166458,93.383514 
	z"/>
	<path fill="#FCFCFE" opacity="1.000000" stroke="none" 
		d="
	M193.918198,98.946602 
		C194.542099,97.025352 195.166016,95.104111 196.159912,92.043533 
		C197.675110,94.887177 198.548309,96.525978 199.701447,98.690109 
		C197.937378,98.819923 196.392609,98.933601 194.421082,99.028625 
		C193.994293,99.009979 193.918198,98.946602 193.918198,98.946602 
	z"/>
	<path fill="#FCFCFE" opacity="1.000000" stroke="none" 
		d="
	M247.941101,97.963196 
		C247.963943,94.992378 247.702652,91.715881 253.216553,93.882507 
		C251.705429,94.604530 250.802902,95.035767 249.901062,95.470581 
		C250.813431,95.912971 251.725128,96.351799 253.881516,97.389748 
		C251.308716,97.727783 250.105865,97.885826 248.471298,98.036545 
		C248.039597,98.029221 247.941101,97.963196 247.941101,97.963196 
	z"/>
	<path fill="#FCFCFE" opacity="1.000000" stroke="none" 
		d="
	M177.994293,96.319557 
		C176.806320,95.320580 175.633408,94.668266 174.460480,94.015953 
		C174.518021,93.692520 174.575546,93.369095 174.633087,93.045662 
		C176.184052,93.364494 178.143753,93.229385 179.158844,94.143372 
		C179.996307,94.897408 179.715790,96.893120 179.930679,98.338600 
		C179.535294,98.424843 179.139908,98.511086 178.744522,98.597328 
		C178.499451,97.953629 178.254395,97.309921 177.994293,96.319557 
	z"/>
	<path fill="#FCFCFE" opacity="1.000000" stroke="none" 
		d="
	M202.990784,95.525070 
		C201.883255,92.293655 204.237656,92.939125 205.882523,93.109192 
		C206.155579,93.137421 206.290482,94.501671 205.871155,95.446846 
		C204.498993,95.605133 203.744888,95.565102 202.990784,95.525070 
	z"/>
	<path fill="#FCFCFE" opacity="1.000000" stroke="none" 
		d="
	M161.591217,94.213264 
		C162.238510,95.668365 162.648056,97.393860 163.057602,99.119362 
		C162.489548,99.218887 161.921494,99.318420 161.353439,99.417946 
		C161.353439,97.773186 161.353439,96.128426 161.591217,94.213264 
	z"/>
	<path fill="#FCFCFE" opacity="1.000000" stroke="none" 
		d="
	M257.123596,95.704659 
		C257.655090,94.898468 258.258698,94.426613 258.862274,93.954758 
		C259.530853,95.255295 260.199463,96.555832 260.868042,97.856377 
		C260.710724,98.048424 260.553406,98.240479 260.396088,98.432526 
		C259.329285,97.634682 258.262451,96.836838 257.123596,95.704659 
	z"/>
	<path fill="#FCFCFE" opacity="1.000000" stroke="none" 
		d="
	M231.153549,94.271759 
		C232.158478,94.952293 232.868820,95.504112 233.579147,96.055931 
		C233.515518,96.367104 233.451874,96.678284 233.388245,96.989456 
		C232.006195,96.617828 230.624130,96.246193 229.242065,95.874557 
		C229.781036,95.297386 230.319992,94.720207 231.153549,94.271759 
	z"/>
	<path fill="#4384B4" opacity="1.000000" stroke="none" 
		d="
	M197.861694,60.590622 
		C196.992950,60.839092 196.192474,60.710457 195.287537,60.060188 
		C195.357132,58.991352 195.531174,58.444153 195.705231,57.896954 
		C195.705231,57.896954 195.750290,57.700775 195.832718,57.643044 
		C196.586746,58.461380 197.258362,59.337448 197.861694,60.590622 
	z"/>
	<path fill="#FCFCFE" opacity="1.000000" stroke="none" 
		d="
	M189.003937,95.674240 
		C189.676590,96.262718 190.073166,96.799568 190.469742,97.336411 
		C190.192230,97.436066 189.691772,97.656593 189.670486,97.617340 
		C189.320526,96.971802 189.030960,96.293526 189.003937,95.674240 
	z"/>
	<path fill="#34339C" opacity="1.000000" stroke="none" 
		d="
	M202.783722,95.710419 
		C203.744888,95.565102 204.498993,95.605133 205.631195,95.648788 
		C206.252838,96.000610 206.496384,96.348824 206.739914,96.697029 
		C206.070877,96.828033 205.401855,96.959045 204.065735,97.052261 
		C202.966644,96.958359 202.534607,96.902252 202.102600,96.846146 
		C202.260605,96.529350 202.418625,96.212555 202.783722,95.710419 
	z"/>
	<path fill="#FCFCFE" opacity="1.000000" stroke="none" 
		d="
	M222.652222,96.708084 
		C222.963608,97.515907 223.006226,98.317329 223.048828,99.118744 
		C222.771133,99.120941 222.493454,99.123131 222.215759,99.125320 
		C222.271652,98.317444 222.327545,97.509560 222.652222,96.708084 
	z"/>
	<path fill="#FCFCFE" opacity="1.000000" stroke="none" 
		d="
	M186.283997,97.965706 
		C186.106644,97.164299 186.106644,96.561195 186.106644,95.958099 
		C186.330246,95.969452 186.553848,95.980812 186.777466,95.992165 
		C186.672089,96.716118 186.566727,97.440063 186.283997,97.965706 
	z"/>
	<path fill="#D5D6E6" opacity="1.000000" stroke="none" 
		d="
	M201.989868,97.114342 
		C202.534607,96.902252 202.966644,96.958359 203.711914,97.107666 
		C203.337860,97.748604 202.650558,98.296349 201.963242,98.844093 
		C201.934540,98.356911 201.905838,97.869720 201.989868,97.114342 
	z"/>
	<path fill="#FCFCFE" opacity="1.000000" stroke="none" 
		d="
	M181.602448,93.527390 
		C182.061600,93.582741 182.340942,93.810486 182.620300,94.038223 
		C182.435974,94.214775 182.251648,94.391327 182.067337,94.567879 
		C181.852432,94.278511 181.637527,93.989143 181.602448,93.527390 
	z"/>
	<path fill="#FCFCFE" opacity="1.000000" stroke="none" 
		d="
	M190.527481,94.398651 
		C190.582825,93.939629 190.810516,93.660355 191.038208,93.381073 
		C191.214691,93.565369 191.391159,93.749664 191.567627,93.933975 
		C191.278366,94.148781 190.989105,94.363579 190.527481,94.398651 
	z"/>
	<path fill="#FCFCFE" opacity="1.000000" stroke="none" 
		d="
	M232.475464,98.598076 
		C232.419800,99.060516 232.190475,99.341904 231.961166,99.623276 
		C231.783340,99.437660 231.605515,99.252045 231.427689,99.066429 
		C231.719070,98.849960 232.010452,98.633484 232.475464,98.598076 
	z"/>
	<path fill="#FCFCFE" opacity="1.000000" stroke="none" 
		d="
	M216.883514,95.272217 
		C216.782425,95.752380 216.640900,96.004257 216.499359,96.256126 
		C216.358246,96.004555 216.051773,95.689850 216.117630,95.517319 
		C216.200989,95.299019 216.587372,95.196419 216.883514,95.272217 
	z"/>
	<path fill="#FCFCFE" opacity="1.000000" stroke="none" 
		d="
	M248.089050,98.061943 
		C248.085022,98.642593 248.031555,99.190529 247.978104,99.738457 
		C247.828705,99.249382 247.679306,98.760307 247.735504,98.117218 
		C247.941101,97.963196 248.039597,98.029221 248.089050,98.061943 
	z"/>
	<path fill="#FCFCFE" opacity="1.000000" stroke="none" 
		d="
	M218.798248,98.652267 
		C219.143143,98.950554 219.276535,99.194733 219.409927,99.438919 
		C219.157227,99.511566 218.904526,99.584206 218.651810,99.656830 
		C218.630142,99.303940 218.608459,98.951042 218.798248,98.652267 
	z"/>
	<path fill="#FCFCFE" opacity="1.000000" stroke="none" 
		d="
	M174.160004,98.861572 
		C174.241821,99.251122 174.168640,99.488075 174.095459,99.725029 
		C173.828583,99.461403 173.561707,99.197777 173.294830,98.934158 
		C173.531555,98.859093 173.768280,98.784035 174.160004,98.861572 
	z"/>
	<path fill="#FCFCFE" opacity="1.000000" stroke="none" 
		d="
	M123.639153,96.802750 
		C123.786850,96.598137 124.269005,96.480156 124.703201,96.682449 
		C124.428024,96.964943 124.200813,96.927162 123.639153,96.802750 
	z"/>
	<path fill="#FCFCFE" opacity="1.000000" stroke="none" 
		d="
	M194.025696,99.048264 
		C193.920761,99.089951 193.784439,99.093338 193.783142,99.021667 
		C193.918198,98.946602 193.994293,99.009979 194.025696,99.048264 
	z"/>
	<path fill="#FCFCFE" opacity="1.000000" stroke="none" 
		d="
	M195.018784,66.936371 
		C194.980255,66.704002 195.183746,66.555855 195.633606,66.572136 
		C195.628906,66.788658 195.422501,66.883331 195.018784,66.936371 
	z"/>
	<path fill="#FCFCFE" opacity="1.000000" stroke="none" 
		d="
	M188.098068,66.385803 
		C188.389679,66.175735 188.606247,66.339256 188.693787,66.850845 
		C188.667725,67.062630 188.528687,67.037903 188.460464,67.028931 
		C188.392242,67.019958 188.125977,66.623116 188.098068,66.385803 
	z"/>
	<path fill="#0999C1" opacity="1.000000" stroke="none" 
		d="
	M91.176239,59.977074 
		C91.119392,53.957214 91.062546,47.937351 91.523727,41.463207 
		C100.746262,41.634853 109.450768,42.260784 118.133514,42.903603 
		C118.111771,42.920490 118.070915,42.883774 118.065872,43.241528 
		C119.006805,45.729088 119.952782,47.858898 120.452301,49.952324 
		C115.860207,49.248589 111.729362,48.459774 107.564262,47.952030 
		C104.186020,47.540211 100.766609,47.466049 96.609558,47.192364 
		C102.232994,50.915291 106.643906,54.036667 111.263390,56.810703 
		C113.650963,58.244457 116.408745,59.061718 119.002869,60.357220 
		C119.006477,60.556923 119.007179,60.956387 118.993530,61.344246 
		C117.978157,62.500057 116.823952,63.135410 116.012321,64.068687 
		C114.936325,65.305946 114.127983,66.775963 113.027740,68.424622 
		C111.609436,69.886444 110.368027,71.069618 109.007309,71.987633 
		C108.601952,71.471481 108.315895,71.220490 107.845383,70.633530 
		C104.444557,69.523567 101.228172,68.749557 98.010452,67.577194 
		C98.210854,65.917740 97.955963,64.173431 98.692078,63.477810 
		C102.184685,60.177315 100.421753,58.202648 97.291664,56.295761 
		C95.232613,57.535252 93.204422,58.756161 91.176239,59.977074 
	z"/>
	<path fill="#03679E" opacity="1.000000" stroke="none" 
		d="
	M118.155266,42.886711 
		C109.450768,42.260784 100.746262,41.634853 91.596359,40.999329 
		C91.106323,38.616264 91.061676,36.242798 91.089767,33.429855 
		C92.518051,31.880056 93.788490,30.637085 95.253418,29.697294 
		C96.674492,28.785645 99.211060,27.176512 99.684807,27.606539 
		C103.802063,31.343855 107.706207,29.142447 112.083504,27.623444 
		C112.471107,27.533760 112.367287,27.640371 112.382698,27.959614 
		C112.755173,28.479702 113.112236,28.680548 113.653885,29.187477 
		C115.277412,33.957943 116.716339,38.422329 118.155266,42.886711 
	z"/>
	<path fill="#1F218F" opacity="1.000000" stroke="none" 
		d="
	M75.099052,88.208351 
		C74.958481,89.237724 75.415688,90.347244 75.323219,91.408882 
		C75.113167,93.820602 75.434517,97.149895 74.036217,98.340981 
		C72.646889,99.524429 69.008965,99.335457 67.088707,98.338776 
		C64.012321,96.742035 64.921951,94.830734 68.129021,93.828102 
		C69.122543,95.215401 70.017860,96.465569 70.913177,97.715729 
		C71.378387,97.454803 71.843597,97.193871 72.308807,96.932945 
		C71.283829,95.277260 70.001816,93.722649 69.300735,91.939606 
		C68.476151,89.842476 67.438934,87.383560 67.891747,85.400742 
		C68.153008,84.256645 71.140732,83.162468 72.958466,83.059982 
		C77.404686,82.809311 77.776520,83.811005 75.099052,88.208351 
	z"/>
	<path fill="#17198C" opacity="1.000000" stroke="none" 
		d="
	M30.506313,94.867096 
		C27.986361,100.147873 24.633038,101.344681 21.220060,98.466087 
		C18.940153,96.543152 18.900349,94.968758 22.410305,93.829948 
		C23.199646,95.067772 24.019218,96.352997 24.838791,97.638229 
		C25.327486,97.383820 25.816183,97.129410 26.304878,96.875008 
		C25.188375,95.075996 23.913935,93.352806 23.002960,91.455132 
		C22.205803,89.794548 21.022411,87.691643 21.472870,86.237366 
		C21.918558,84.798492 24.107452,83.195137 25.693144,83.004135 
		C27.414904,82.796730 29.322834,84.134827 31.149584,84.799011 
		C30.044949,86.268364 28.940315,87.737724 27.652719,89.450447 
		C28.366781,90.682304 29.478048,92.599388 30.506313,94.867096 
	z"/>
	<path fill="#252793" opacity="1.000000" stroke="none" 
		d="
	M44.954590,90.954399 
		C44.927555,92.667007 45.024422,94.012634 44.790951,95.298264 
		C44.529198,96.739601 43.968613,98.126671 43.538055,99.537354 
		C42.101917,98.800713 40.665775,98.064072 38.727764,97.070007 
		C37.736485,97.648659 35.940865,98.696831 33.432667,100.160965 
		C32.172852,95.325569 33.306137,91.641479 35.644005,88.216637 
		C35.995422,87.701820 37.074551,87.683739 37.817051,87.435883 
		C38.309456,89.013588 38.801865,90.591286 39.247154,92.018021 
		C40.938694,91.584518 42.935703,91.072723 44.954590,90.954399 
	M37.298447,93.332649 
		C37.791698,93.451591 38.284950,93.570526 38.778202,93.689468 
		C38.479694,93.395065 38.181190,93.100662 37.298447,93.332649 
	z"/>
	<path fill="#282A93" opacity="1.000000" stroke="none" 
		d="
	M57.355446,94.003769 
		C56.964516,96.103386 56.600052,97.779396 56.235588,99.455414 
		C54.847439,98.231781 53.459290,97.008141 51.653011,95.415932 
		C50.664539,96.717613 49.228462,98.608727 47.792389,100.499832 
		C45.273361,95.124771 46.893230,91.273705 50.164951,86.726807 
		C51.163670,88.612297 51.759243,89.736679 52.352127,90.855988 
		C53.634674,90.169983 54.980152,89.450333 57.381912,88.165703 
		C57.381912,90.584251 57.381912,92.082207 57.355446,94.003769 
	z"/>
	<path fill="#0BAACF" opacity="1.000000" stroke="none" 
		d="
	M91.111359,60.423325 
		C93.204422,58.756161 95.232613,57.535252 97.291664,56.295761 
		C100.421753,58.202648 102.184685,60.177315 98.692078,63.477810 
		C97.955963,64.173431 98.210854,65.917740 97.952736,67.926910 
		C96.512039,69.505241 95.127716,70.335495 93.743393,71.165749 
		C92.829796,69.546547 91.564125,68.020676 91.103035,66.281502 
		C90.654945,64.591331 91.031853,62.682430 91.111359,60.423325 
	z"/>
	<path fill="#292B95" opacity="1.000000" stroke="none" 
		d="
	M85.992302,96.449127 
		C83.887665,97.530396 81.783028,98.611664 79.274109,99.900627 
		C77.725113,95.349808 79.213531,91.822533 81.206985,88.470039 
		C81.570107,87.859367 82.841454,87.788742 83.693527,87.468811 
		C83.955299,88.762405 84.217064,90.055992 84.728920,91.662781 
		C84.979004,91.975983 85.031601,91.978729 84.709961,91.855339 
		C84.604408,92.208145 84.820503,92.684341 85.027130,93.465210 
		C85.342537,94.662956 85.667419,95.556046 85.992302,96.449127 
	z"/>
	<path fill="#262893" opacity="1.000000" stroke="none" 
		d="
	M85.991714,96.837189 
		C85.667419,95.556046 85.342537,94.662956 85.265091,93.168739 
		C85.352219,92.371307 85.191910,92.175018 85.031601,91.978729 
		C85.031601,91.978729 84.979004,91.975983 84.958038,91.991287 
		C86.613945,91.246536 88.290810,90.486488 90.383148,89.538116 
		C90.649590,91.994507 90.879356,94.112694 91.578194,96.195381 
		C92.042282,96.553757 92.037300,96.947624 92.030472,97.636848 
		C89.932426,98.411369 87.472977,101.992729 85.991714,96.837189 
	z"/>
	<path fill="#2FAED3" opacity="1.000000" stroke="none" 
		d="
	M93.922943,71.541130 
		C95.127716,70.335495 96.512039,69.505241 97.954071,68.325264 
		C101.228172,68.749557 104.444557,69.523567 107.829910,70.879860 
		C107.998886,71.462151 107.986702,71.954964 107.618919,71.965233 
		C106.157967,72.329857 105.064804,72.684212 103.971634,73.038567 
		C100.681915,72.664551 97.392204,72.290527 93.922943,71.541130 
	z"/>
	<path fill="#19B0D9" opacity="1.000000" stroke="none" 
		d="
	M110.137650,79.120605 
		C108.243271,81.986732 106.348892,84.852859 104.108078,87.778900 
		C103.761627,87.838821 103.809486,87.736366 103.838669,87.735069 
		C104.526649,83.125259 105.185440,78.516739 106.091415,73.569550 
		C106.930458,73.525360 107.522339,73.819839 108.114296,74.424965 
		C108.096939,75.151825 108.079514,75.568047 107.776917,76.209473 
		C107.327728,77.623024 107.163712,78.811356 106.854370,80.049942 
		C106.806137,80.066895 106.903221,80.033600 107.290878,79.877991 
		C108.359421,79.475525 109.137398,79.195366 109.970474,78.967056 
		C110.025566,79.018921 110.137642,79.120598 110.137650,79.120605 
	z"/>
	<path fill="#262893" opacity="1.000000" stroke="none" 
		d="
	M92.047340,98.275734 
		C92.827293,98.000267 93.612961,98.017479 94.791122,98.053421 
		C94.140091,98.237572 93.096581,98.402992 92.047340,98.275734 
	z"/>
	<path fill="#0999C1" opacity="1.000000" stroke="none" 
		d="
	M108.114220,74.114319 
		C107.522339,73.819839 106.930458,73.525360 106.008957,73.206909 
		C105.294632,73.192848 104.909935,73.202744 104.248436,73.125595 
		C105.064804,72.684212 106.157967,72.329857 107.621307,72.316139 
		C108.020554,73.122536 108.049629,73.588295 108.082687,74.070663 
		C108.086670,74.087273 108.114220,74.114319 108.114220,74.114319 
	z"/>
	<path fill="#E5840F" opacity="1.000000" stroke="none" 
		d="
	M156.906616,33.073349 
		C160.052505,36.254761 163.198380,39.436169 166.658356,43.195805 
		C168.328873,45.859051 169.685272,47.944069 171.011505,50.014534 
		C170.981339,49.999981 171.000381,49.935238 170.817169,50.306732 
		C170.353836,53.429657 170.073715,56.181087 169.829803,58.968857 
		C169.866028,59.005196 169.940216,58.934277 169.622543,59.142868 
		C168.808472,62.920654 166.361694,62.351257 164.137070,61.543575 
		C167.520554,52.399273 165.644989,45.797089 157.739456,39.301430 
		C151.550568,34.216263 144.211380,33.984394 137.730743,37.545685 
		C132.308304,40.525475 127.684746,45.306591 127.926361,52.685894 
		C127.995468,54.796497 127.366814,56.929943 126.908356,59.214684 
		C126.486565,59.497837 126.246712,59.665318 125.735130,59.856857 
		C125.241264,59.906807 125.051308,59.978802 124.593826,59.992516 
		C123.963448,59.929173 123.600609,59.924114 123.158051,59.471657 
		C123.523537,55.038383 123.968735,51.052505 124.616562,46.813576 
		C126.563087,43.756271 128.306992,40.952015 130.356903,37.974449 
		C131.753769,36.115986 132.844650,34.430832 133.989258,32.426670 
		C135.683060,31.734766 137.323135,31.361874 139.201279,30.987686 
		C139.912598,31.004818 140.385864,31.023251 140.859116,31.041681 
		C143.259720,31.114355 145.660339,31.187027 148.896027,31.368851 
		C152.122955,32.009785 154.514786,32.541569 156.906616,33.073349 
	z"/>
	<path fill="#04558B" opacity="1.000000" stroke="none" 
		d="
	M108.999023,21.304550 
		C106.890083,17.686197 107.217697,15.443553 112.016556,14.739933 
		C115.514954,14.226990 118.935318,13.044625 122.317909,11.938756 
		C123.933228,11.410666 125.379921,10.366787 127.180130,9.409096 
		C129.344559,10.660505 131.818542,12.090900 134.580688,14.085962 
		C134.888641,15.087081 134.908432,15.523533 134.949249,15.960465 
		C134.970276,15.960946 134.947113,15.927355 134.729034,16.187017 
		C134.292633,17.320105 134.074310,18.193529 133.793945,19.130695 
		C133.731903,19.194435 133.763016,19.369604 133.481354,19.600458 
		C132.374008,21.549833 131.548309,23.268354 130.337646,25.057579 
		C128.219376,25.419546 126.453262,25.586971 124.761475,26.035023 
		C122.863808,26.537596 121.033363,27.293926 118.834381,27.863876 
		C115.329735,25.626787 112.164383,23.465670 108.999023,21.304550 
	z"/>
	<path fill="#EEB111" opacity="1.000000" stroke="none" 
		d="
	M108.725388,21.453768 
		C112.164383,23.465670 115.329735,25.626787 118.910774,28.164614 
		C119.277229,28.949495 119.228012,29.357668 118.886673,29.753227 
		C118.064804,29.491478 117.535049,29.242344 116.949997,28.848930 
		C116.802544,28.655876 116.710388,28.607103 116.618240,28.558327 
		C116.743156,28.707415 116.868073,28.856503 116.986359,29.428429 
		C117.901421,34.184322 118.823112,38.517376 119.744804,42.850433 
		C120.283363,42.787746 120.821922,42.725063 121.360481,42.662376 
		C122.545296,40.753059 123.730103,38.843742 124.564903,37.498470 
		C122.570900,34.631454 120.868553,32.183784 119.511055,29.784437 
		C122.523766,31.615366 125.191628,33.397972 127.937370,35.519257 
		C125.973900,38.902672 123.932549,41.947411 121.563271,45.016628 
		C120.180527,44.321995 119.125725,43.602886 118.070915,42.883774 
		C118.070915,42.883774 118.111771,42.920490 118.133514,42.903603 
		C116.716339,38.422329 115.277412,33.957943 113.555328,28.909452 
		C112.970551,28.097019 112.668922,27.868696 112.367287,27.640373 
		C112.367287,27.640371 112.471107,27.533760 112.472649,27.459190 
		C111.133377,25.457409 109.792572,23.530197 108.725388,21.453768 
	z"/>
	<path fill="#E0A918" opacity="1.000000" stroke="none" 
		d="
	M134.928223,15.959984 
		C134.908432,15.523533 134.888641,15.087081 134.824158,14.324991 
		C134.779480,11.277137 134.779480,8.554922 134.779480,4.674104 
		C136.460129,6.983021 137.671310,8.646962 139.063965,11.033487 
		C140.717224,17.569332 138.235229,24.203981 142.901291,29.353640 
		C142.423508,29.821947 141.945724,30.290255 141.163544,30.900122 
		C140.385864,31.023251 139.912598,31.004818 139.197235,30.588469 
		C138.076401,25.103479 137.197662,20.016407 136.327377,14.978297 
		C135.973862,15.226340 135.451035,15.593163 134.928223,15.959984 
	z"/>
	<path fill="#17366C" opacity="1.000000" stroke="none" 
		d="
	M157.263977,33.006889 
		C154.514786,32.541569 152.122955,32.009785 149.403748,31.321789 
		C149.060715,30.729036 149.045044,30.292501 149.407608,29.475786 
		C152.472717,29.711214 155.159622,30.326822 157.335281,30.825298 
		C159.142120,27.189751 160.814774,23.824198 162.671539,20.293457 
		C163.071320,19.864552 163.200592,19.563717 163.525772,18.994896 
		C164.581558,15.507072 165.355087,12.250115 166.128632,8.993156 
		C170.102539,12.708268 167.464996,16.520212 166.146484,20.664455 
		C164.324127,23.899340 162.755798,26.850252 160.927689,29.630337 
		C160.088486,30.906574 158.739288,31.847466 157.263977,33.006889 
	z"/>
	<path fill="#E3A815" opacity="1.000000" stroke="none" 
		d="
	M162.487427,20.458645 
		C160.814774,23.824198 159.142120,27.189751 157.335281,30.825298 
		C155.159622,30.326822 152.472717,29.711214 149.398834,29.148434 
		C148.563843,28.248903 147.476730,26.841509 147.776001,26.421160 
		C149.251312,24.349022 151.094009,22.538475 153.249634,20.659914 
		C153.692215,20.684206 154.006500,21.008532 153.852936,21.306793 
		C152.143311,23.363714 150.587250,25.122372 148.540588,27.435478 
		C151.798416,27.940069 154.108047,28.297796 155.644485,28.535769 
		C157.986725,25.348179 159.968979,22.650499 162.083237,20.081442 
		C162.215240,20.210064 162.487427,20.458645 162.487427,20.458645 
	z"/>
	<path fill="#E3A815" opacity="1.000000" stroke="none" 
		d="
	M166.019226,8.763945 
		C165.355087,12.250115 164.581558,15.507072 163.421814,18.903618 
		C163.035583,19.043207 162.825211,18.863457 162.886810,18.503910 
		C163.629089,16.065592 164.309769,13.986821 164.808533,12.463595 
		C161.309540,15.231472 157.658020,18.120001 154.006500,21.008530 
		C154.006500,21.008532 153.692215,20.684206 153.551788,20.506294 
		C156.702820,16.496489 159.994293,12.664595 163.324783,8.466496 
		C163.700104,7.558330 164.036392,7.016367 164.559662,6.320932 
		C164.983292,6.673513 165.219955,7.179566 165.680878,7.856212 
		C165.906677,8.196114 165.908264,8.365423 166.019226,8.763945 
	z"/>
	<path fill="#0D3A74" opacity="1.000000" stroke="none" 
		d="
	M142.921402,28.905994 
		C138.235229,24.203981 140.717224,17.569332 139.219727,11.338775 
		C140.131454,12.552261 141.623367,14.095976 141.895828,15.831179 
		C142.549271,19.992361 142.629791,24.243505 142.921402,28.905994 
	z"/>
	<path fill="#16AAD6" opacity="1.000000" stroke="none" 
		d="
	M171.019073,64.018341 
		C175.739273,63.737659 180.457581,63.354317 185.181351,63.267078 
		C186.074509,63.250584 186.989380,64.410789 187.865555,65.396713 
		C185.188568,67.531158 182.540268,69.296921 179.417404,71.005249 
		C178.942841,70.947823 178.658783,70.658173 178.722198,70.392601 
		C178.815582,69.757393 178.845520,69.387764 179.197662,68.899628 
		C180.485245,68.120880 181.450638,67.460625 182.416046,66.800362 
		C182.278275,66.448921 182.140503,66.097473 182.002747,65.746033 
		C180.331436,66.181770 178.660141,66.617508 176.614197,67.046844 
		C175.490005,67.053535 174.740463,67.066635 173.711060,66.773605 
		C169.248230,66.368568 165.065262,66.269638 160.533966,66.174942 
		C158.807220,66.352768 157.428787,66.526352 155.965210,66.382080 
		C154.879166,65.765015 153.878296,65.465820 152.518188,65.141541 
		C151.439072,65.097527 150.719208,65.078598 149.867554,64.821831 
		C149.156906,64.710632 148.578003,64.837288 147.655609,64.935303 
		C146.206345,64.635704 145.100586,64.364731 143.824249,63.822906 
		C142.729919,63.073997 141.806122,62.595940 141.304260,62.084122 
		C142.859909,62.015030 143.993622,61.979706 145.528107,61.932571 
		C153.929260,62.622551 161.929626,63.324341 170.202362,64.035721 
		C170.656174,64.036324 170.837631,64.027336 171.019073,64.018341 
	z"/>
	<path fill="#16AAD6" opacity="1.000000" stroke="none" 
		d="
	M179.084213,71.093292 
		C173.917114,76.219551 167.208511,78.583984 160.341385,78.807480 
		C152.195114,79.072617 143.995407,77.695694 135.538116,76.758583 
		C135.472961,76.230476 135.741028,76.053795 136.484787,75.965698 
		C140.650757,76.253029 144.393524,76.531357 148.588196,76.840477 
		C152.974777,76.837936 156.909439,76.804611 161.188080,76.823853 
		C162.379654,76.544502 163.227264,76.212593 164.428696,75.880936 
		C165.601456,74.989876 166.420380,74.098564 167.608734,73.182480 
		C169.614441,72.689560 171.250763,72.221405 173.261383,71.795654 
		C175.310043,71.444756 176.984421,71.051468 178.658783,70.658173 
		C178.658783,70.658173 178.942841,70.947823 179.084213,71.093292 
	z"/>
	<path fill="#19B0D9" opacity="1.000000" stroke="none" 
		d="
	M136.061584,75.956711 
		C135.741028,76.053795 135.472961,76.230476 135.135391,76.696419 
		C129.190872,76.594826 123.361977,75.991524 117.548973,76.118073 
		C115.268936,76.167709 113.024483,77.852226 110.450729,78.956390 
		C110.137642,79.120598 110.025566,79.018921 110.016190,78.660126 
		C110.343575,77.543098 110.680328,76.784866 111.339294,75.869125 
		C116.783028,74.556366 121.904564,73.401100 127.183228,72.508591 
		C128.280487,73.107239 129.220612,73.443130 130.469727,73.810486 
		C131.192520,73.863487 131.606308,73.885033 132.206390,74.190376 
		C133.615662,74.968353 134.838623,75.462532 136.061584,75.956711 
	z"/>
	<path fill="#F6CA11" opacity="1.000000" stroke="none" 
		d="
	M169.059372,42.883442 
		C166.868851,39.890457 164.678329,36.897472 161.908112,33.112408 
		C163.572357,32.470455 165.510391,31.085268 167.442078,31.094044 
		C173.958221,31.123648 180.237686,30.522642 186.093414,27.356524 
		C186.480560,27.147207 187.432785,27.982992 187.746765,28.852623 
		C184.322861,31.585310 181.232956,33.743778 178.238586,36.027519 
		C175.734421,37.937416 173.341980,39.993832 170.670380,42.113686 
		C169.980240,42.455814 169.519806,42.669628 169.059372,42.883442 
	z"/>
	<path fill="#133B77" opacity="1.000000" stroke="none" 
		d="
	M170.900070,41.985367 
		C173.341980,39.993832 175.734421,37.937416 178.238586,36.027519 
		C181.232956,33.743778 184.322861,31.585310 187.690796,29.239941 
		C188.192307,29.647234 188.374420,30.187168 188.815491,30.870544 
		C189.059814,31.180384 189.045166,31.346785 188.790802,31.860048 
		C188.270432,32.400845 188.093307,32.664398 188.019775,32.997566 
		C187.895660,33.311226 187.698807,33.569405 186.985321,33.983192 
		C186.255600,34.391891 186.080475,34.661438 186.016022,35.002914 
		C186.016022,35.002914 185.973145,35.468143 185.937988,35.698727 
		C184.996643,36.396553 184.090454,36.863796 182.654358,37.629913 
		C180.410156,38.626167 178.695877,39.323547 176.766449,40.119381 
		C176.282623,40.407444 176.101654,40.659935 175.747162,41.086994 
		C174.984695,41.463913 174.483444,41.729137 173.597015,41.995384 
		C172.441254,41.992725 171.670654,41.989044 170.900070,41.985367 
	z"/>
	<path fill="#145086" opacity="1.000000" stroke="none" 
		d="
	M170.670380,42.113686 
		C171.670654,41.989044 172.441254,41.992725 173.575851,42.328171 
		C173.630783,43.715961 173.321701,44.771988 173.012619,45.828011 
		C172.349380,46.307148 171.686127,46.786289 171.013428,47.972900 
		C171.016525,49.129944 171.029099,49.579514 171.041687,50.029083 
		C169.685272,47.944069 168.328873,45.859051 166.905762,43.411858 
		C167.484253,43.133396 168.129440,43.217106 168.917007,43.092129 
		C169.519806,42.669628 169.980240,42.455814 170.670380,42.113686 
	z"/>
	<path fill="#066799" opacity="1.000000" stroke="none" 
		d="
	M173.418076,45.883476 
		C173.321701,44.771988 173.630783,43.715961 173.961029,42.327148 
		C174.483444,41.729137 174.984695,41.463913 175.964783,40.991955 
		C176.715729,40.595783 176.895050,40.341019 176.981598,40.020927 
		C178.695877,39.323547 180.410156,38.626167 182.485626,37.899445 
		C183.307999,39.916454 183.769196,41.962799 184.230377,44.009148 
		C184.758041,44.081383 185.285690,44.153622 185.813339,44.225857 
		C184.341385,45.130325 182.869431,46.034790 181.078674,47.125145 
		C178.447769,46.853668 176.135651,46.396301 173.418076,45.883476 
	z"/>
	<path fill="#294F92" opacity="1.000000" stroke="none" 
		d="
	M195.333420,57.880074 
		C195.531174,58.444153 195.357132,58.991352 195.090591,59.823376 
		C194.273819,60.152054 193.549545,60.195908 192.101639,60.201881 
		C190.882950,60.223946 190.387894,60.283890 189.892822,60.343834 
		C189.479324,60.302719 189.065811,60.261604 188.079773,60.160290 
		C187.328278,60.112080 187.149323,60.124073 186.970352,60.136066 
		C185.629364,60.050713 184.288361,59.965359 182.399719,59.680378 
		C181.612015,59.232136 181.319214,59.105648 180.973648,59.101292 
		C179.932922,59.104446 178.892197,59.107601 177.113693,59.081009 
		C175.597519,58.409218 174.819122,57.767174 174.492523,57.058418 
		C180.617996,57.290546 186.291656,57.589382 191.965302,57.888218 
		C192.964066,57.879875 193.962845,57.871532 195.333420,57.880074 
	z"/>
	<path fill="#4384B4" opacity="1.000000" stroke="none" 
		d="
	M174.040710,57.125126 
		C174.819122,57.767174 175.597519,58.409218 176.725342,59.122139 
		C176.421936,59.741802 175.476212,60.896935 175.161804,60.745071 
		C172.196228,59.312630 172.080368,61.798569 171.153595,63.696236 
		C170.837631,64.027336 170.656174,64.036324 170.227753,63.610512 
		C169.967270,61.761898 169.953735,60.348087 169.940216,58.934277 
		C169.940216,58.934277 169.866028,59.005196 170.149628,58.899338 
		C170.997604,58.167698 171.562012,57.541912 172.445831,56.952946 
		C173.190414,57.034885 173.615555,57.080006 174.040710,57.125126 
	z"/>
	<path fill="#4384B4" opacity="1.000000" stroke="none" 
		d="
	M189.973633,60.595318 
		C190.387894,60.283890 190.882950,60.223946 191.743469,60.260628 
		C191.424088,60.520435 190.739258,60.683620 189.973633,60.595318 
	z"/>
	<path fill="#4384B4" opacity="1.000000" stroke="none" 
		d="
	M181.109131,59.307152 
		C181.319214,59.105648 181.612015,59.232136 181.996460,59.678284 
		C181.789368,59.885025 181.490616,59.764091 181.109131,59.307152 
	z"/>
	<path fill="#4384B4" opacity="1.000000" stroke="none" 
		d="
	M187.065857,60.284607 
		C187.149323,60.124073 187.328278,60.112080 187.767792,60.167789 
		C187.739334,60.301373 187.450348,60.367260 187.065857,60.284607 
	z"/>
	<path fill="#F7C50E" opacity="1.000000" stroke="none" 
		d="
	M174.492523,57.058418 
		C173.615555,57.080006 173.190414,57.034885 172.402069,56.533707 
		C171.692719,54.030174 171.346558,51.982708 171.000381,49.935238 
		C171.000381,49.935238 170.981339,49.999981 171.011505,50.014534 
		C171.029099,49.579514 171.016525,49.129944 171.071533,48.349609 
		C174.978363,47.389893 177.893616,48.880287 180.952179,51.238907 
		C184.183853,53.731030 188.176529,55.236298 191.901031,57.530434 
		C186.291656,57.589382 180.617996,57.290546 174.492523,57.058418 
	z"/>
	<path fill="#0B6395" opacity="1.000000" stroke="none" 
		d="
	M188.238220,32.895630 
		C188.093307,32.664398 188.270432,32.400845 188.773682,32.110031 
		C188.909302,32.337578 188.729446,32.597759 188.238220,32.895630 
	z"/>
	<path fill="#0B6395" opacity="1.000000" stroke="none" 
		d="
	M186.232559,34.894806 
		C186.080475,34.661438 186.255600,34.391891 186.768707,34.099747 
		C186.902878,34.328129 186.720581,34.588623 186.232559,34.894806 
	z"/>
	<path fill="#6ACBE7" opacity="1.000000" stroke="none" 
		d="
	M127.026093,72.245842 
		C121.904564,73.401100 116.783028,74.556366 110.969162,75.856232 
		C109.538574,75.995308 108.800323,75.989784 108.062088,75.984261 
		C108.079514,75.568047 108.096939,75.151825 108.114296,74.424965 
		C108.114220,74.114319 108.086670,74.087273 108.321747,73.928513 
		C108.746750,73.264107 108.936684,72.758446 109.126610,72.252792 
		C110.368027,71.069618 111.609436,69.886444 113.368484,68.408798 
		C114.573486,68.059723 115.260872,68.005112 116.332367,67.931389 
		C120.008690,66.943932 123.314835,66.019798 126.586990,64.987877 
		C128.132278,64.500542 129.612411,63.806622 131.340775,63.164062 
		C131.559479,63.121815 131.999390,63.051537 132.407623,63.069191 
		C134.176056,63.117363 135.536255,63.147877 137.012604,63.526443 
		C139.417450,63.947582 141.706131,64.020668 143.994812,64.093758 
		C145.100586,64.364731 146.206345,64.635704 147.789673,65.169632 
		C148.844589,65.308281 149.421967,65.183975 149.999329,65.059677 
		C150.719208,65.078598 151.439072,65.097527 152.552856,65.479172 
		C152.979141,66.527382 153.011551,67.212875 152.589340,67.971184 
		C143.791672,67.751381 135.448608,67.458755 126.703011,67.106186 
		C124.061821,67.546173 121.823158,68.046097 119.584496,68.546028 
		C119.649719,68.857956 119.714943,69.169891 119.780159,69.481819 
		C122.217728,70.047455 124.655289,70.613091 127.072067,71.445251 
		C127.042900,71.889793 127.034500,72.067818 127.026093,72.245842 
	z"/>
	<path fill="#FAD211" opacity="1.000000" stroke="none" 
		d="
	M118.999268,60.157516 
		C116.408745,59.061718 113.650963,58.244457 111.263390,56.810703 
		C106.643906,54.036667 102.232994,50.915291 96.609558,47.192364 
		C100.766609,47.466049 104.186020,47.540211 107.564262,47.952030 
		C111.729362,48.459774 115.860207,49.248589 120.485710,50.395676 
		C120.310135,53.969448 119.654701,57.063484 118.999268,60.157516 
	z"/>
	<path fill="#03679E" opacity="1.000000" stroke="none" 
		d="
	M119.002869,60.357220 
		C119.654701,57.063484 120.310135,53.969448 120.932159,50.432060 
		C119.952782,47.858898 119.006805,45.729088 118.065872,43.241528 
		C119.125725,43.602886 120.180527,44.321995 121.734573,45.305992 
		C122.960510,46.069462 123.687218,46.568043 124.413925,47.066628 
		C123.968735,51.052505 123.523537,55.038383 123.066971,59.803040 
		C121.706131,60.706673 120.356651,60.831528 119.007179,60.956387 
		C119.007179,60.956387 119.006477,60.556923 119.002869,60.357220 
	z"/>
	<path fill="#10A5D2" opacity="1.000000" stroke="none" 
		d="
	M118.993530,61.344246 
		C120.356651,60.831528 121.706131,60.706673 123.146683,60.250435 
		C123.600609,59.924114 123.963448,59.929173 124.733673,60.213921 
		C125.442932,60.651150 125.744812,60.808689 126.363983,61.014175 
		C127.100060,61.147507 127.518837,61.232883 127.820259,61.526577 
		C127.467613,62.159233 127.232323,62.583572 126.619492,63.059036 
		C122.810707,64.723610 119.379478,66.337051 115.948250,67.950500 
		C115.260872,68.005112 114.573486,68.059723 113.545364,68.130150 
		C114.127983,66.775963 114.936325,65.305946 116.012321,64.068687 
		C116.823952,63.135410 117.978157,62.500057 118.993530,61.344246 
	z"/>
	<path fill="#19B0D9" opacity="1.000000" stroke="none" 
		d="
	M109.007309,71.987633 
		C108.936684,72.758446 108.746750,73.264107 108.317764,73.911911 
		C108.049629,73.588295 108.020554,73.122536 107.989090,72.305870 
		C107.986702,71.954964 107.998886,71.462151 108.014359,71.215820 
		C108.315895,71.220490 108.601952,71.471481 109.007309,71.987633 
	z"/>
	<path fill="#045C8F" opacity="1.000000" stroke="none" 
		d="
	M112.382698,27.959616 
		C112.668922,27.868696 112.970551,28.097019 113.370743,28.603367 
		C113.112236,28.680548 112.755173,28.479702 112.382698,27.959616 
	z"/>
	<path fill="#FEFEFE" opacity="1.000000" stroke="none" 
		d="
	M37.590569,93.069458 
		C38.181190,93.100662 38.479694,93.395065 38.778198,93.689468 
		C38.284950,93.570526 37.791698,93.451591 37.590569,93.069458 
	z"/>
	<path fill="#FEFEFE" opacity="1.000000" stroke="none" 
		d="
	M84.709961,91.855339 
		C85.191910,92.175018 85.352219,92.371307 85.274567,92.864075 
		C84.820503,92.684341 84.604408,92.208145 84.709961,91.855339 
	z"/>
	<path fill="#40BCE0" opacity="1.000000" stroke="none" 
		d="
	M107.776917,76.209473 
		C108.800323,75.989784 109.538574,75.995308 110.646950,76.013733 
		C110.680328,76.784866 110.343575,77.543098 109.961105,78.608261 
		C109.137398,79.195366 108.359421,79.475525 107.290726,79.877838 
		C107.000000,80.000000 106.999695,79.999695 106.999695,79.999695 
		C107.163712,78.811356 107.327728,77.623024 107.776917,76.209473 
	z"/>
	<path fill="#40BCE0" opacity="1.000000" stroke="none" 
		d="
	M107.000153,80.000153 
		C106.903221,80.033600 106.806137,80.066895 106.854370,80.049942 
		C106.999695,79.999695 107.000000,80.000000 107.000153,80.000153 
	z"/>
	<path fill="#F2B20E" opacity="1.000000" stroke="none" 
		d="
	M127.058105,59.052914 
		C127.366814,56.929943 127.995468,54.796497 127.926361,52.685894 
		C127.684746,45.306591 132.308304,40.525475 137.730743,37.545685 
		C144.211380,33.984394 151.550568,34.216263 157.739456,39.301430 
		C165.644989,45.797089 167.520554,52.399273 163.729279,61.591789 
		C161.771057,61.902691 160.400513,61.837334 159.200165,61.444954 
		C161.657837,55.594658 162.223114,50.223831 157.853241,45.355659 
		C153.754257,40.789257 148.870544,38.750488 142.709839,40.611588 
		C134.665939,43.041584 131.858704,47.750416 131.636765,58.848869 
		C129.839066,58.982025 128.448593,59.017467 127.058105,59.052914 
	z"/>
	<path fill="#0D6296" opacity="1.000000" stroke="none" 
		d="
	M119.178787,29.765841 
		C119.228012,29.357668 119.277229,28.949495 119.250061,28.240585 
		C121.033363,27.293926 122.863808,26.537596 124.761475,26.035023 
		C126.453262,25.586971 128.219376,25.419546 130.318390,25.416042 
		C130.732498,27.572407 130.780899,29.441006 130.841736,31.664906 
		C131.881287,32.262032 132.908401,32.503857 133.935516,32.745682 
		C132.844650,34.430832 131.753769,36.115986 130.227631,37.674988 
		C129.148087,36.759418 128.503784,35.969997 127.859497,35.180580 
		C125.191628,33.397972 122.523766,31.615366 119.430115,29.832863 
		C119.004333,29.832966 119.178787,29.765841 119.178787,29.765841 
	z"/>
	<path fill="#1D4E92" opacity="1.000000" stroke="none" 
		d="
	M126.908356,59.214684 
		C128.448593,59.017467 129.839066,58.982025 132.093628,58.908066 
		C138.286011,59.547913 143.608749,60.274956 148.944687,60.886898 
		C152.296188,61.271263 155.667526,61.482864 159.029953,61.771973 
		C160.400513,61.837334 161.771057,61.902691 163.549408,61.919838 
		C166.361694,62.351257 168.808472,62.920654 169.622543,59.142868 
		C169.953735,60.348087 169.967270,61.761898 169.955414,63.600922 
		C161.929626,63.324341 153.929260,62.622551 145.198761,61.674911 
		C140.258820,61.458870 136.049011,61.488682 131.515991,61.555199 
		C130.107727,61.500690 129.022675,61.409473 127.937614,61.318260 
		C127.518837,61.232883 127.100060,61.147507 126.357452,60.742500 
		C126.035423,60.241550 126.037239,60.060223 126.039047,59.878895 
		C126.246712,59.665318 126.486565,59.497837 126.908356,59.214684 
	z"/>
	<path fill="#EFD018" opacity="1.000000" stroke="none" 
		d="
	M133.989258,32.426670 
		C132.908401,32.503857 131.881287,32.262032 130.904572,31.246281 
		C131.890991,26.771441 132.827011,23.070522 133.763031,19.369606 
		C133.763016,19.369604 133.731903,19.194435 134.086243,18.924143 
		C134.609436,17.745020 134.778275,16.836187 134.947113,15.927355 
		C134.947113,15.927355 134.970276,15.960946 134.949249,15.960464 
		C135.451035,15.593163 135.973862,15.226340 136.327377,14.978297 
		C137.197662,20.016407 138.076401,25.103479 138.959167,30.589767 
		C137.323135,31.361874 135.683060,31.734766 133.989258,32.426670 
	z"/>
	<path fill="#233E71" opacity="1.000000" stroke="none" 
		d="
	M127.937370,35.519257 
		C128.503784,35.969997 129.148087,36.759418 129.921631,37.848297 
		C128.306992,40.952015 126.563087,43.756271 124.616562,46.813576 
		C123.687218,46.568043 122.960510,46.069462 122.062500,45.281517 
		C123.932549,41.947411 125.973900,38.902672 127.937370,35.519257 
	z"/>
	<path fill="#1D4E92" opacity="1.000000" stroke="none" 
		d="
	M170.817169,50.306732 
		C171.346558,51.982708 171.692719,54.030174 172.082657,56.496887 
		C171.562012,57.541912 170.997604,58.167698 170.113403,58.862999 
		C170.073715,56.181087 170.353836,53.429657 170.817169,50.306732 
	z"/>
	<path fill="#03679E" opacity="1.000000" stroke="none" 
		d="
	M125.735130,59.856857 
		C126.037239,60.060223 126.035423,60.241550 126.040154,60.694553 
		C125.744812,60.808689 125.442932,60.651150 125.001205,60.272209 
		C125.051308,59.978802 125.241264,59.906807 125.735130,59.856857 
	z"/>
	<path fill="#E0A918" opacity="1.000000" stroke="none" 
		d="
	M133.481369,19.600460 
		C132.827011,23.070522 131.890991,26.771441 130.892136,30.890982 
		C130.780899,29.441006 130.732498,27.572407 130.703369,25.345341 
		C131.548309,23.268354 132.374008,21.549833 133.481369,19.600460 
	z"/>
	<path fill="#E0A918" opacity="1.000000" stroke="none" 
		d="
	M134.729034,16.187017 
		C134.778275,16.836187 134.609436,17.745020 134.148300,18.860401 
		C134.074310,18.193529 134.292633,17.320105 134.729034,16.187017 
	z"/>
	<path fill="#F6DA17" opacity="1.000000" stroke="none" 
		d="
	M119.085274,29.784540 
		C120.868553,32.183784 122.570900,34.631454 124.564903,37.498470 
		C123.730103,38.843742 122.545296,40.753059 121.360481,42.662376 
		C120.821922,42.725063 120.283363,42.787746 119.744804,42.850433 
		C118.823112,38.517376 117.901421,34.184322 116.989853,29.425644 
		C116.999985,29.000019 117.005302,28.993210 117.005302,28.993210 
		C117.535049,29.242344 118.064804,29.491478 118.886673,29.753227 
		C119.178787,29.765841 119.004333,29.832966 119.085274,29.784540 
	z"/>
	<path fill="#F6DA17" opacity="1.000000" stroke="none" 
		d="
	M116.996483,29.002804 
		C116.868073,28.856503 116.743156,28.707415 116.618240,28.558327 
		C116.710388,28.607103 116.802544,28.655876 116.949997,28.848930 
		C117.005302,28.993210 116.999985,29.000019 116.996483,29.002804 
	z"/>
	<path fill="#E3A815" opacity="1.000000" stroke="none" 
		d="
	M163.139557,19.134485 
		C163.200592,19.563717 163.071320,19.864552 162.671539,20.293457 
		C162.487427,20.458645 162.215240,20.210064 162.195374,19.874973 
		C162.361588,19.285128 162.578156,19.059654 162.825211,18.863457 
		C162.825211,18.863457 163.035583,19.043207 163.139557,19.134485 
	z"/>
	<path fill="#F6D918" opacity="1.000000" stroke="none" 
		d="
	M162.886810,18.503910 
		C162.578156,19.059654 162.361588,19.285128 162.063354,19.746349 
		C159.968979,22.650499 157.986725,25.348179 155.644485,28.535769 
		C154.108047,28.297796 151.798416,27.940069 148.540588,27.435478 
		C150.587250,25.122372 152.143311,23.363714 153.852936,21.306793 
		C157.658020,18.120001 161.309540,15.231472 164.808533,12.463595 
		C164.309769,13.986821 163.629089,16.065592 162.886810,18.503910 
	z"/>
	<path fill="#40BCE0" opacity="1.000000" stroke="none" 
		d="
	M160.882278,66.170715 
		C165.065262,66.269638 169.248230,66.368568 173.611481,67.012772 
		C173.526962,68.005638 173.262192,68.453209 172.537445,68.920593 
		C168.394272,68.863380 164.711075,68.786354 161.028381,68.389404 
		C160.980042,67.436562 160.931152,66.803635 160.882278,66.170715 
	z"/>
	<path fill="#6ACBE7" opacity="1.000000" stroke="none" 
		d="
	M172.997406,68.900787 
		C173.262192,68.453209 173.526962,68.005638 173.891327,67.318893 
		C174.740463,67.066635 175.490005,67.053535 176.655716,67.353378 
		C177.673065,68.116928 178.274277,68.567528 178.875473,69.018127 
		C178.845520,69.387764 178.815582,69.757393 178.722198,70.392601 
		C176.984421,71.051468 175.310043,71.444756 173.280685,71.444946 
		C172.949600,70.334824 172.973511,69.617805 172.997406,68.900787 
	z"/>
	<path fill="#10A5D2" opacity="1.000000" stroke="none" 
		d="
	M131.839188,61.518494 
		C136.049011,61.488682 140.258820,61.458870 144.798004,61.686718 
		C143.993622,61.979706 142.859909,62.015030 140.966202,62.107182 
		C139.102966,62.502132 137.999710,62.840263 136.896454,63.178394 
		C135.536255,63.147877 134.176056,63.117363 132.377838,62.684578 
		C131.906265,62.027699 131.872726,61.773098 131.839188,61.518494 
	z"/>
	<path fill="#6ACBE7" opacity="1.000000" stroke="none" 
		d="
	M160.533966,66.174942 
		C160.931152,66.803635 160.980042,67.436562 161.000122,68.686310 
		C160.960526,69.499802 160.949722,69.696457 160.537796,69.907333 
		C158.418610,69.285057 156.700546,68.648560 155.218857,67.846764 
		C155.653595,67.354301 155.851990,67.027122 156.050369,66.699944 
		C157.428787,66.526352 158.807220,66.352768 160.533966,66.174942 
	z"/>
	<path fill="#40BCE0" opacity="1.000000" stroke="none" 
		d="
	M137.012604,63.526443 
		C137.999710,62.840263 139.102966,62.502132 140.544281,62.140945 
		C141.806122,62.595940 142.729919,63.073997 143.824249,63.822906 
		C141.706131,64.020668 139.417450,63.947582 137.012604,63.526443 
	z"/>
	<path fill="#40BCE0" opacity="1.000000" stroke="none" 
		d="
	M179.197662,68.899628 
		C178.274277,68.567528 177.673065,68.116928 177.030365,67.359787 
		C178.660141,66.617508 180.331436,66.181770 182.002747,65.746033 
		C182.140503,66.097473 182.278275,66.448921 182.416046,66.800362 
		C181.450638,67.460625 180.485245,68.120880 179.197662,68.899628 
	z"/>
	<path fill="#40BCE0" opacity="1.000000" stroke="none" 
		d="
	M155.965210,66.382080 
		C155.851990,67.027122 155.653595,67.354301 154.894531,67.856430 
		C153.903885,67.987038 153.473923,67.942703 153.043945,67.898361 
		C153.011551,67.212875 152.979141,66.527382 152.912079,65.504257 
		C153.878296,65.465820 154.879166,65.765015 155.965210,66.382080 
	z"/>
	<path fill="#40BCE0" opacity="1.000000" stroke="none" 
		d="
	M149.867554,64.821823 
		C149.421967,65.183975 148.844589,65.308281 148.133179,65.198257 
		C148.578003,64.837288 149.156906,64.710632 149.867554,64.821823 
	z"/>
	<path fill="#6ACBE7" opacity="1.000000" stroke="none" 
		d="
	M160.844101,76.771294 
		C156.909439,76.804611 152.974777,76.837936 148.550720,76.531761 
		C148.040024,75.774345 148.018723,75.356422 147.996002,74.629044 
		C148.002197,73.906532 148.009827,73.493477 148.414093,73.072807 
		C152.532303,73.082367 156.253876,73.099548 160.085114,73.350502 
		C160.465118,74.021339 160.735489,74.458405 160.993881,75.211662 
		C160.935974,75.942337 160.890030,76.356812 160.844101,76.771294 
	z"/>
	<path fill="#96DBEF" opacity="1.000000" stroke="none" 
		d="
	M161.005859,74.895462 
		C160.735489,74.458405 160.465118,74.021339 160.291779,73.070061 
		C161.612534,72.245079 162.836273,71.934303 164.417847,71.532661 
		C162.934814,70.833733 161.936874,70.363419 160.938934,69.893112 
		C160.949722,69.696457 160.960526,69.499802 160.999588,69.006241 
		C164.711075,68.786354 168.394272,68.863380 172.537445,68.920593 
		C172.973511,69.617805 172.949600,70.334824 172.906372,71.402550 
		C171.250763,72.221405 169.614441,72.689560 167.253494,73.110435 
		C165.675003,73.609657 164.821136,74.156151 163.602478,74.779114 
		C162.493744,74.868874 161.749802,74.882172 161.005859,74.895462 
	z"/>
	<path fill="#40BCE0" opacity="1.000000" stroke="none" 
		d="
	M147.997437,74.938507 
		C148.018723,75.356422 148.040024,75.774345 148.098816,76.500977 
		C144.393524,76.531357 140.650757,76.253029 136.484787,75.965698 
		C134.838623,75.462532 133.615662,74.968353 132.458893,73.927795 
		C134.009369,73.262238 135.493637,73.143066 137.322113,73.056236 
		C138.772400,73.367973 139.878494,73.647362 141.160873,74.193848 
		C141.943771,74.570457 142.550354,74.679985 143.559235,74.821136 
		C145.306824,74.881348 146.652130,74.909927 147.997437,74.938507 
	z"/>
	<path fill="#6ACBE7" opacity="1.000000" stroke="none" 
		d="
	M163.967270,74.702637 
		C164.821136,74.156151 165.675003,73.609657 166.884094,73.135208 
		C166.420380,74.098564 165.601456,74.989876 164.399811,75.587189 
		C164.000473,75.096344 163.983871,74.899490 163.967270,74.702637 
	z"/>
	<path fill="#40BCE0" opacity="1.000000" stroke="none" 
		d="
	M163.602478,74.779106 
		C163.983871,74.899490 164.000473,75.096344 164.045959,75.586945 
		C163.227264,76.212593 162.379654,76.544502 161.188080,76.823853 
		C160.890030,76.356812 160.935974,75.942337 160.993881,75.211655 
		C161.749802,74.882172 162.493744,74.868874 163.602478,74.779106 
	z"/>
	<path fill="#6ACBE7" opacity="1.000000" stroke="none" 
		d="
	M136.977921,73.023895 
		C135.493637,73.143066 134.009369,73.262238 132.272583,73.643997 
		C131.606308,73.885033 131.192520,73.863487 130.422729,73.502792 
		C130.006302,72.534859 129.945862,71.906067 130.168030,71.180817 
		C130.643585,71.038330 130.836517,70.992294 131.438904,70.964371 
		C133.213470,71.023087 134.578583,71.063675 136.068146,71.347481 
		C136.454376,72.068428 136.716141,72.546158 136.977921,73.023895 
	z"/>
	<path fill="#40BCE0" opacity="1.000000" stroke="none" 
		d="
	M129.885422,71.277275 
		C129.945862,71.906067 130.006302,72.534859 130.113739,73.471336 
		C129.220612,73.443130 128.280487,73.107239 127.183228,72.508591 
		C127.034500,72.067818 127.042900,71.889793 127.421097,71.421951 
		C128.489075,71.180511 129.187241,71.228889 129.885422,71.277275 
	z"/>
	<path fill="#145086" opacity="1.000000" stroke="none" 
		d="
	M176.766449,40.119377 
		C176.895050,40.341019 176.715729,40.595783 176.226013,40.880260 
		C176.101654,40.659935 176.282623,40.407444 176.766449,40.119377 
	z"/>
	<path fill="#C9ECF6" opacity="1.000000" stroke="none" 
		d="
	M135.943710,71.104271 
		C134.578583,71.063675 133.213470,71.023087 131.367432,70.627159 
		C129.626205,69.236595 128.365875,68.201363 127.105545,67.166130 
		C135.448608,67.458755 143.791672,67.751381 152.589340,67.971184 
		C153.473923,67.942703 153.903885,67.987038 154.658173,68.021713 
		C156.700546,68.648560 158.418610,69.285057 160.537796,69.907333 
		C161.936874,70.363419 162.934814,70.833733 164.417847,71.532661 
		C162.836273,71.934303 161.612534,72.245079 160.182129,72.836296 
		C156.253876,73.099548 152.532303,73.082367 148.197052,72.792313 
		C146.051941,72.629189 144.520462,72.738930 142.660278,72.863434 
		C141.896637,72.826721 141.461716,72.775246 140.931656,72.373573 
		C139.205582,71.717010 137.574646,71.410637 135.943710,71.104271 
	z"/>
	<path fill="#A4DFF1" opacity="1.000000" stroke="none" 
		d="
	M126.703011,67.106186 
		C128.365875,68.201363 129.626205,69.236595 130.957993,70.609039 
		C130.836517,70.992294 130.643585,71.038330 130.168030,71.180817 
		C129.187241,71.228889 128.489075,71.180511 127.441872,71.155426 
		C124.655289,70.613091 122.217728,70.047455 119.780159,69.481819 
		C119.714943,69.169891 119.649719,68.857956 119.584496,68.546028 
		C121.823158,68.046097 124.061821,67.546173 126.703011,67.106186 
	z"/>
	<path fill="#40BCE0" opacity="1.000000" stroke="none" 
		d="
	M116.332367,67.931389 
		C119.379478,66.337051 122.810707,64.723610 127.031647,63.062851 
		C128.921585,63.079124 130.021820,63.142719 131.122070,63.206310 
		C129.612411,63.806622 128.132278,64.500542 126.586990,64.987877 
		C123.314835,66.019798 120.008690,66.943932 116.332367,67.931389 
	z"/>
	<path fill="#16AAD6" opacity="1.000000" stroke="none" 
		d="
	M131.340775,63.164062 
		C130.021820,63.142719 128.921585,63.079124 127.409187,63.011719 
		C127.232323,62.583572 127.467613,62.159233 127.820259,61.526577 
		C129.022675,61.409473 130.107727,61.500690 131.515991,61.555199 
		C131.872726,61.773098 131.906265,62.027699 131.969604,62.666920 
		C131.999390,63.051537 131.559479,63.121815 131.340775,63.164062 
	z"/>
	<path fill="#F6DC18" opacity="1.000000" stroke="none" 
		d="
	M159.200165,61.444954 
		C155.667526,61.482864 152.296188,61.271263 148.944687,60.886898 
		C143.608749,60.274956 138.286011,59.547913 132.500824,58.810349 
		C131.858704,47.750416 134.665939,43.041584 142.709839,40.611588 
		C148.870544,38.750488 153.754257,40.789257 157.853241,45.355659 
		C162.223114,50.223831 161.657837,55.594658 159.200165,61.444954 
	z"/>
	<path fill="#96DBEF" opacity="1.000000" stroke="none" 
		d="
	M142.988998,72.848679 
		C144.520462,72.738930 146.051941,72.629189 147.800430,72.799942 
		C148.009827,73.493477 148.002197,73.906532 147.996002,74.629044 
		C146.652130,74.909927 145.306824,74.881348 143.516434,74.502075 
		C143.043900,73.717140 143.016449,73.282913 142.988998,72.848679 
	z"/>
	<path fill="#96DBEF" opacity="1.000000" stroke="none" 
		d="
	M136.068146,71.347481 
		C137.574646,71.410637 139.205582,71.717010 140.916443,72.675507 
		C140.992447,73.527344 140.988510,73.727051 140.984573,73.926758 
		C139.878494,73.647362 138.772400,73.367973 137.322113,73.056236 
		C136.716141,72.546158 136.454376,72.068428 136.068146,71.347481 
	z"/>
	<path fill="#6ACBE7" opacity="1.000000" stroke="none" 
		d="
	M141.160873,74.193848 
		C140.988510,73.727051 140.992447,73.527344 141.011581,73.025703 
		C141.461716,72.775246 141.896637,72.826721 142.660278,72.863434 
		C143.016449,73.282913 143.043900,73.717140 143.114151,74.470444 
		C142.550354,74.679985 141.943771,74.570457 141.160873,74.193848 
	z"/>
	</svg>